<svg xmlns="http://www.w3.org/2000/svg" xmlns:xlink="http://www.w3.org/1999/xlink" width="164" height="110" viewBox="0 0 164 110">
  <defs>
    <clipPath id="clip-logo_white">
      <rect width="164" height="110"/>
    </clipPath>
  </defs>
  <g id="logo_white" clip-path="url(#clip-logo_white)">
    <g id="Group_22" data-name="Group 22" transform="translate(-2 -4.458)">
      <path id="Path_12" data-name="Path 12" d="M0,52.293,98.361,0" transform="matrix(0.883, 0.469, -0.469, 0.883, 52.54, 54.139)" fill="#fff" stroke="#fff" stroke-width="4"/>
      <g id="Group_20" data-name="Group 20" transform="translate(27.433 12.5)">
        <path id="Path_11" data-name="Path 11" d="M0,30.4,27.7,15.676,50.037,3.8l2.681-1.425L57.185,0" transform="translate(0 0)" fill="#fff" stroke="#fff" stroke-width="4"/>
        <line id="Line_3" data-name="Line 3" x1="56.461" y1="30.402" transform="translate(55.737 0)" fill="none" stroke="#fff" stroke-width="4"/>
        <rect id="Rectangle_4" data-name="Rectangle 4" width="4" height="12" transform="translate(92.567 8.958)" fill="#fff"/>
      </g>
      <text id="LUBA_S" data-name="LUBA`S" transform="translate(63 51.458)" fill="#fff" font-size="13" font-family="PlayfairDisplay-Bold, Playfair Display" font-weight="700"><tspan x="0" y="0">LUBA`S</tspan></text>
      <text id="Services" transform="translate(53 89.458)" fill="#fff" font-size="13" font-family="PlayfairDisplay-Bold, Playfair Display" font-weight="700"><tspan x="0" y="0">SERVICES</tspan></text>
      <path id="Path_13" data-name="Path 13" d="M0,0H21.787" transform="translate(27.99 84.58)" fill="#fff" stroke="#fff" stroke-width="1"/>
      <line id="Line_5" data-name="Line 5" x2="18" transform="translate(121.5 84.58)" fill="none" stroke="#fff" stroke-width="1"/>
      <g id="Group_21" data-name="Group 21" transform="translate(8 45.966)">
        <path id="heart" d="M19.231,33.334a6.319,6.319,0,0,0-8.491.629,6.315,6.315,0,0,0-8.491-.629,6.348,6.348,0,0,0-.445,9.28l7.359,7.5a2.2,2.2,0,0,0,3.155,0l7.359-7.5A6.352,6.352,0,0,0,19.231,33.334Zm-.99,7.866-7.359,7.5a.172.172,0,0,1-.285,0L3.239,41.2a4.326,4.326,0,0,1,.306-6.322,4.254,4.254,0,0,1,5.727.441l1.468,1.5,1.468-1.5a4.251,4.251,0,0,1,5.727-.445A4.345,4.345,0,0,1,18.241,41.2Z" transform="translate(21.83 -22.467)" fill="#fff"/>
        <text id="mecare" transform="translate(44 27.492)" fill="#fff" font-size="25" font-family="PlayfairDisplay-Black, Playfair Display" font-weight="800"><tspan x="0" y="0">MECARE</tspan></text>
        <text id="h" transform="translate(0 27.492)" fill="#fff" font-size="25" font-family="PlayfairDisplay-Black, Playfair Display" font-weight="800"><tspan x="0" y="0">H</tspan></text>
      </g>
    </g>
  </g>
</svg>
